<?xml version="1.0" standalone="no"?>
<!DOCTYPE svg PUBLIC "-//W3C//DTD SVG 20010904//EN"
 "http://www.w3.org/TR/2001/REC-SVG-20010904/DTD/svg10.dtd">
<svg version="1.0" xmlns="http://www.w3.org/2000/svg"
 width="256.000000pt" height="256.000000pt" viewBox="0 0 256.000000 256.000000"
 preserveAspectRatio="xMidYMid meet">
<metadata>
Created by potrace 1.14, written by Peter Selinger 2001-2017
</metadata>
<g transform="translate(0.000000,256.000000) scale(0.100000,-0.100000)"
fill="#000000" stroke="none">
<path d="M1149 2483 c-24 -6 -36 -39 -58 -160 -21 -112 -25 -140 -36 -235 -4
-31 -13 -65 -20 -75 -13 -17 -14 -16 -24 9 -5 14 -18 31 -28 37 -17 9 -17 10
1 17 11 4 22 2 28 -7 6 -10 7 -7 3 11 -8 28 -132 347 -144 370 -5 9 -26 16
-50 18 -52 4 -59 -10 -38 -83 9 -30 13 -55 11 -55 -3 0 -38 16 -80 36 -57 27
-78 33 -88 24 -10 -8 -15 -6 -20 7 -6 13 -9 14 -15 4 -6 -10 -10 -9 -15 5 -7
17 -8 17 -19 -3 -7 -11 -21 -32 -31 -47 -18 -26 -18 -29 -2 -62 14 -30 20 -34
39 -27 39 14 107 5 151 -21 42 -25 126 -108 126 -124 0 -5 -17 -21 -39 -35
-96 -64 -162 -155 -195 -270 -13 -46 -30 -73 -77 -123 -69 -74 -90 -118 -114
-235 -23 -113 -25 -170 -9 -239 7 -33 16 -74 19 -92 19 -114 51 -229 78 -283
28 -57 218 -322 288 -402 32 -37 84 -99 115 -136 105 -128 166 -175 259 -202
63 -19 193 -22 221 -7 39 21 131 132 167 200 19 37 60 128 90 202 30 74 72
175 92 224 42 101 51 174 29 251 -19 67 -23 106 -13 132 4 11 10 45 13 75 3
29 8 85 12 123 4 39 8 109 8 157 1 47 5 90 9 94 4 4 20 1 35 -7 15 -9 45 -21
68 -28 36 -12 44 -11 67 4 l26 17 -25 36 -24 37 32 5 c24 4 34 11 36 26 4 30
-16 75 -36 81 -13 3 -17 12 -15 31 5 41 -8 55 -42 42 l-27 -10 6 52 c3 29 7
62 9 73 2 16 -5 21 -33 25 -23 3 -31 8 -22 13 6 5 12 17 12 27 0 10 -6 20 -12
23 -15 5 -68 -20 -68 -31 0 -16 -82 -54 -143 -68 -62 -13 -62 -13 -82 13 -57
75 -121 123 -193 144 -61 18 -68 30 -48 83 9 24 25 53 34 64 55 63 156 83 186
37 15 -23 18 -24 32 -10 9 8 22 15 29 15 8 0 22 11 31 24 22 34 8 54 -58 85
-43 21 -54 31 -58 56 -4 22 -11 30 -25 30 -13 0 -19 -6 -17 -16 1 -9 -5 -22
-14 -30 -16 -13 -22 -9 -38 26 -3 6 -16 -3 -28 -19 -13 -16 -49 -57 -81 -90
-31 -34 -72 -83 -89 -109 -18 -27 -34 -44 -36 -38 -2 5 9 74 23 151 15 78 25
144 22 146 -9 9 -62 20 -78 17z"/>
</g>
</svg>
